<?xml version="1.0" encoding="utf-8" standalone="no"?>
<!DOCTYPE svg PUBLIC "-//W3C//DTD SVG 1.1//EN"
  "http://www.w3.org/Graphics/SVG/1.1/DTD/svg11.dtd">
<!-- Created with matplotlib (http://matplotlib.org/) -->
<svg height="360pt" version="1.1" viewBox="0 0 1440 360" width="1440pt" xmlns="http://www.w3.org/2000/svg" xmlns:xlink="http://www.w3.org/1999/xlink">
 <defs>
  <style type="text/css">
*{stroke-linecap:butt;stroke-linejoin:round;}
  </style>
 </defs>
 <g id="figure_1">
  <g id="patch_1">
   <path d="M 0 360 
L 1440 360 
L 1440 0 
L 0 0 
z
" style="fill:#ffffff;"/>
  </g>
  <g id="axes_1">
   <g id="patch_2">
    <path d="M 180 320.4 
L 1296 320.4 
L 1296 43.2 
L 180 43.2 
z
" style="fill:#ffffff;"/>
   </g>
   <g id="matplotlib.axis_1">
    <g id="xtick_1">
     <g id="line2d_1">
      <path clip-path="url(#p033343ea76)" d="M 274.656436 320.4 
L 274.656436 43.2 
" style="fill:none;stroke:#b0b0b0;stroke-linecap:square;stroke-width:0.8;"/>
     </g>
     <g id="line2d_2">
      <defs>
       <path d="M 0 0 
L 0 3.5 
" id="m6340ee40a5" style="stroke:#000000;stroke-width:0.8;"/>
      </defs>
      <g>
       <use style="stroke:#000000;stroke-width:0.8;" x="274.656436" xlink:href="#m6340ee40a5" y="320.4"/>
      </g>
     </g>
     <g id="text_1">
      <!-- 1960 -->
      <defs>
       <path d="M 12.40625 8.296875 
L 28.515625 8.296875 
L 28.515625 63.921875 
L 10.984375 60.40625 
L 10.984375 69.390625 
L 28.421875 72.90625 
L 38.28125 72.90625 
L 38.28125 8.296875 
L 54.390625 8.296875 
L 54.390625 0 
L 12.40625 0 
z
" id="DejaVuSans-31"/>
       <path d="M 10.984375 1.515625 
L 10.984375 10.5 
Q 14.703125 8.734375 18.5 7.8125 
Q 22.3125 6.890625 25.984375 6.890625 
Q 35.75 6.890625 40.890625 13.453125 
Q 46.046875 20.015625 46.78125 33.40625 
Q 43.953125 29.203125 39.59375 26.953125 
Q 35.25 24.703125 29.984375 24.703125 
Q 19.046875 24.703125 12.671875 31.3125 
Q 6.296875 37.9375 6.296875 49.421875 
Q 6.296875 60.640625 12.9375 67.421875 
Q 19.578125 74.21875 30.609375 74.21875 
Q 43.265625 74.21875 49.921875 64.515625 
Q 56.59375 54.828125 56.59375 36.375 
Q 56.59375 19.140625 48.40625 8.859375 
Q 40.234375 -1.421875 26.421875 -1.421875 
Q 22.703125 -1.421875 18.890625 -0.6875 
Q 15.09375 0.046875 10.984375 1.515625 
M 30.609375 32.421875 
Q 37.25 32.421875 41.125 36.953125 
Q 45.015625 41.5 45.015625 49.421875 
Q 45.015625 57.28125 41.125 61.84375 
Q 37.25 66.40625 30.609375 66.40625 
Q 23.96875 66.40625 20.09375 61.84375 
Q 16.21875 57.28125 16.21875 49.421875 
Q 16.21875 41.5 20.09375 36.953125 
Q 23.96875 32.421875 30.609375 32.421875 
" id="DejaVuSans-39"/>
       <path d="M 33.015625 40.375 
Q 26.375 40.375 22.484375 35.828125 
Q 18.609375 31.296875 18.609375 23.390625 
Q 18.609375 15.53125 22.484375 10.953125 
Q 26.375 6.390625 33.015625 6.390625 
Q 39.65625 6.390625 43.53125 10.953125 
Q 47.40625 15.53125 47.40625 23.390625 
Q 47.40625 31.296875 43.53125 35.828125 
Q 39.65625 40.375 33.015625 40.375 
M 52.59375 71.296875 
L 52.59375 62.3125 
Q 48.875 64.0625 45.09375 64.984375 
Q 41.3125 65.921875 37.59375 65.921875 
Q 27.828125 65.921875 22.671875 59.328125 
Q 17.53125 52.734375 16.796875 39.40625 
Q 19.671875 43.65625 24.015625 45.921875 
Q 28.375 48.1875 33.59375 48.1875 
Q 44.578125 48.1875 50.953125 41.515625 
Q 57.328125 34.859375 57.328125 23.390625 
Q 57.328125 12.15625 50.6875 5.359375 
Q 44.046875 -1.421875 33.015625 -1.421875 
Q 20.359375 -1.421875 13.671875 8.265625 
Q 6.984375 17.96875 6.984375 36.375 
Q 6.984375 53.65625 15.1875 63.9375 
Q 23.390625 74.21875 37.203125 74.21875 
Q 40.921875 74.21875 44.703125 73.484375 
Q 48.484375 72.75 52.59375 71.296875 
" id="DejaVuSans-36"/>
       <path d="M 31.78125 66.40625 
Q 24.171875 66.40625 20.328125 58.90625 
Q 16.5 51.421875 16.5 36.375 
Q 16.5 21.390625 20.328125 13.890625 
Q 24.171875 6.390625 31.78125 6.390625 
Q 39.453125 6.390625 43.28125 13.890625 
Q 47.125 21.390625 47.125 36.375 
Q 47.125 51.421875 43.28125 58.90625 
Q 39.453125 66.40625 31.78125 66.40625 
M 31.78125 74.21875 
Q 44.046875 74.21875 50.515625 64.515625 
Q 56.984375 54.828125 56.984375 36.375 
Q 56.984375 17.96875 50.515625 8.265625 
Q 44.046875 -1.421875 31.78125 -1.421875 
Q 19.53125 -1.421875 13.0625 8.265625 
Q 6.59375 17.96875 6.59375 36.375 
Q 6.59375 54.828125 13.0625 64.515625 
Q 19.53125 74.21875 31.78125 74.21875 
" id="DejaVuSans-30"/>
      </defs>
      <g transform="translate(261.931436 334.998438)scale(0.1 -0.1)">
       <use xlink:href="#DejaVuSans-31"/>
       <use x="63.623047" xlink:href="#DejaVuSans-39"/>
       <use x="127.246094" xlink:href="#DejaVuSans-36"/>
       <use x="190.869141" xlink:href="#DejaVuSans-30"/>
      </g>
     </g>
    </g>
    <g id="xtick_2">
     <g id="line2d_3">
      <path clip-path="url(#p033343ea76)" d="M 354.296151 320.4 
L 354.296151 43.2 
" style="fill:none;stroke:#b0b0b0;stroke-linecap:square;stroke-width:0.8;"/>
     </g>
     <g id="line2d_4">
      <g>
       <use style="stroke:#000000;stroke-width:0.8;" x="354.296151" xlink:href="#m6340ee40a5" y="320.4"/>
      </g>
     </g>
     <g id="text_2">
      <!-- 1965 -->
      <defs>
       <path d="M 10.796875 72.90625 
L 49.515625 72.90625 
L 49.515625 64.59375 
L 19.828125 64.59375 
L 19.828125 46.734375 
Q 21.96875 47.46875 24.109375 47.828125 
Q 26.265625 48.1875 28.421875 48.1875 
Q 40.625 48.1875 47.75 41.5 
Q 54.890625 34.8125 54.890625 23.390625 
Q 54.890625 11.625 47.5625 5.09375 
Q 40.234375 -1.421875 26.90625 -1.421875 
Q 22.3125 -1.421875 17.546875 -0.640625 
Q 12.796875 0.140625 7.71875 1.703125 
L 7.71875 11.625 
Q 12.109375 9.234375 16.796875 8.0625 
Q 21.484375 6.890625 26.703125 6.890625 
Q 35.15625 6.890625 40.078125 11.328125 
Q 45.015625 15.765625 45.015625 23.390625 
Q 45.015625 31 40.078125 35.4375 
Q 35.15625 39.890625 26.703125 39.890625 
Q 22.75 39.890625 18.8125 39.015625 
Q 14.890625 38.140625 10.796875 36.28125 
z
" id="DejaVuSans-35"/>
      </defs>
      <g transform="translate(341.571151 334.998438)scale(0.1 -0.1)">
       <use xlink:href="#DejaVuSans-31"/>
       <use x="63.623047" xlink:href="#DejaVuSans-39"/>
       <use x="127.246094" xlink:href="#DejaVuSans-36"/>
       <use x="190.869141" xlink:href="#DejaVuSans-35"/>
      </g>
     </g>
    </g>
    <g id="xtick_3">
     <g id="line2d_5">
      <path clip-path="url(#p033343ea76)" d="M 433.892276 320.4 
L 433.892276 43.2 
" style="fill:none;stroke:#b0b0b0;stroke-linecap:square;stroke-width:0.8;"/>
     </g>
     <g id="line2d_6">
      <g>
       <use style="stroke:#000000;stroke-width:0.8;" x="433.892276" xlink:href="#m6340ee40a5" y="320.4"/>
      </g>
     </g>
     <g id="text_3">
      <!-- 1970 -->
      <defs>
       <path d="M 8.203125 72.90625 
L 55.078125 72.90625 
L 55.078125 68.703125 
L 28.609375 0 
L 18.3125 0 
L 43.21875 64.59375 
L 8.203125 64.59375 
z
" id="DejaVuSans-37"/>
      </defs>
      <g transform="translate(421.167276 334.998438)scale(0.1 -0.1)">
       <use xlink:href="#DejaVuSans-31"/>
       <use x="63.623047" xlink:href="#DejaVuSans-39"/>
       <use x="127.246094" xlink:href="#DejaVuSans-37"/>
       <use x="190.869141" xlink:href="#DejaVuSans-30"/>
      </g>
     </g>
    </g>
    <g id="xtick_4">
     <g id="line2d_7">
      <path clip-path="url(#p033343ea76)" d="M 513.4884 320.4 
L 513.4884 43.2 
" style="fill:none;stroke:#b0b0b0;stroke-linecap:square;stroke-width:0.8;"/>
     </g>
     <g id="line2d_8">
      <g>
       <use style="stroke:#000000;stroke-width:0.8;" x="513.4884" xlink:href="#m6340ee40a5" y="320.4"/>
      </g>
     </g>
     <g id="text_4">
      <!-- 1975 -->
      <g transform="translate(500.7634 334.998438)scale(0.1 -0.1)">
       <use xlink:href="#DejaVuSans-31"/>
       <use x="63.623047" xlink:href="#DejaVuSans-39"/>
       <use x="127.246094" xlink:href="#DejaVuSans-37"/>
       <use x="190.869141" xlink:href="#DejaVuSans-35"/>
      </g>
     </g>
    </g>
    <g id="xtick_5">
     <g id="line2d_9">
      <path clip-path="url(#p033343ea76)" d="M 593.084525 320.4 
L 593.084525 43.2 
" style="fill:none;stroke:#b0b0b0;stroke-linecap:square;stroke-width:0.8;"/>
     </g>
     <g id="line2d_10">
      <g>
       <use style="stroke:#000000;stroke-width:0.8;" x="593.084525" xlink:href="#m6340ee40a5" y="320.4"/>
      </g>
     </g>
     <g id="text_5">
      <!-- 1980 -->
      <defs>
       <path d="M 31.78125 34.625 
Q 24.75 34.625 20.71875 30.859375 
Q 16.703125 27.09375 16.703125 20.515625 
Q 16.703125 13.921875 20.71875 10.15625 
Q 24.75 6.390625 31.78125 6.390625 
Q 38.8125 6.390625 42.859375 10.171875 
Q 46.921875 13.96875 46.921875 20.515625 
Q 46.921875 27.09375 42.890625 30.859375 
Q 38.875 34.625 31.78125 34.625 
M 21.921875 38.8125 
Q 15.578125 40.375 12.03125 44.71875 
Q 8.5 49.078125 8.5 55.328125 
Q 8.5 64.0625 14.71875 69.140625 
Q 20.953125 74.21875 31.78125 74.21875 
Q 42.671875 74.21875 48.875 69.140625 
Q 55.078125 64.0625 55.078125 55.328125 
Q 55.078125 49.078125 51.53125 44.71875 
Q 48 40.375 41.703125 38.8125 
Q 48.828125 37.15625 52.796875 32.3125 
Q 56.78125 27.484375 56.78125 20.515625 
Q 56.78125 9.90625 50.3125 4.234375 
Q 43.84375 -1.421875 31.78125 -1.421875 
Q 19.734375 -1.421875 13.25 4.234375 
Q 6.78125 9.90625 6.78125 20.515625 
Q 6.78125 27.484375 10.78125 32.3125 
Q 14.796875 37.15625 21.921875 38.8125 
M 18.3125 54.390625 
Q 18.3125 48.734375 21.84375 45.5625 
Q 25.390625 42.390625 31.78125 42.390625 
Q 38.140625 42.390625 41.71875 45.5625 
Q 45.3125 48.734375 45.3125 54.390625 
Q 45.3125 60.0625 41.71875 63.234375 
Q 38.140625 66.40625 31.78125 66.40625 
Q 25.390625 66.40625 21.84375 63.234375 
Q 18.3125 60.0625 18.3125 54.390625 
" id="DejaVuSans-38"/>
      </defs>
      <g transform="translate(580.359525 334.998438)scale(0.1 -0.1)">
       <use xlink:href="#DejaVuSans-31"/>
       <use x="63.623047" xlink:href="#DejaVuSans-39"/>
       <use x="127.246094" xlink:href="#DejaVuSans-38"/>
       <use x="190.869141" xlink:href="#DejaVuSans-30"/>
      </g>
     </g>
    </g>
    <g id="xtick_6">
     <g id="line2d_11">
      <path clip-path="url(#p033343ea76)" d="M 672.72424 320.4 
L 672.72424 43.2 
" style="fill:none;stroke:#b0b0b0;stroke-linecap:square;stroke-width:0.8;"/>
     </g>
     <g id="line2d_12">
      <g>
       <use style="stroke:#000000;stroke-width:0.8;" x="672.72424" xlink:href="#m6340ee40a5" y="320.4"/>
      </g>
     </g>
     <g id="text_6">
      <!-- 1985 -->
      <g transform="translate(659.99924 334.998438)scale(0.1 -0.1)">
       <use xlink:href="#DejaVuSans-31"/>
       <use x="63.623047" xlink:href="#DejaVuSans-39"/>
       <use x="127.246094" xlink:href="#DejaVuSans-38"/>
       <use x="190.869141" xlink:href="#DejaVuSans-35"/>
      </g>
     </g>
    </g>
    <g id="xtick_7">
     <g id="line2d_13">
      <path clip-path="url(#p033343ea76)" d="M 752.320364 320.4 
L 752.320364 43.2 
" style="fill:none;stroke:#b0b0b0;stroke-linecap:square;stroke-width:0.8;"/>
     </g>
     <g id="line2d_14">
      <g>
       <use style="stroke:#000000;stroke-width:0.8;" x="752.320364" xlink:href="#m6340ee40a5" y="320.4"/>
      </g>
     </g>
     <g id="text_7">
      <!-- 1990 -->
      <g transform="translate(739.595364 334.998438)scale(0.1 -0.1)">
       <use xlink:href="#DejaVuSans-31"/>
       <use x="63.623047" xlink:href="#DejaVuSans-39"/>
       <use x="127.246094" xlink:href="#DejaVuSans-39"/>
       <use x="190.869141" xlink:href="#DejaVuSans-30"/>
      </g>
     </g>
    </g>
    <g id="xtick_8">
     <g id="line2d_15">
      <path clip-path="url(#p033343ea76)" d="M 831.916489 320.4 
L 831.916489 43.2 
" style="fill:none;stroke:#b0b0b0;stroke-linecap:square;stroke-width:0.8;"/>
     </g>
     <g id="line2d_16">
      <g>
       <use style="stroke:#000000;stroke-width:0.8;" x="831.916489" xlink:href="#m6340ee40a5" y="320.4"/>
      </g>
     </g>
     <g id="text_8">
      <!-- 1995 -->
      <g transform="translate(819.191489 334.998438)scale(0.1 -0.1)">
       <use xlink:href="#DejaVuSans-31"/>
       <use x="63.623047" xlink:href="#DejaVuSans-39"/>
       <use x="127.246094" xlink:href="#DejaVuSans-39"/>
       <use x="190.869141" xlink:href="#DejaVuSans-35"/>
      </g>
     </g>
    </g>
    <g id="xtick_9">
     <g id="line2d_17">
      <path clip-path="url(#p033343ea76)" d="M 911.512613 320.4 
L 911.512613 43.2 
" style="fill:none;stroke:#b0b0b0;stroke-linecap:square;stroke-width:0.8;"/>
     </g>
     <g id="line2d_18">
      <g>
       <use style="stroke:#000000;stroke-width:0.8;" x="911.512613" xlink:href="#m6340ee40a5" y="320.4"/>
      </g>
     </g>
     <g id="text_9">
      <!-- 2000 -->
      <defs>
       <path d="M 19.1875 8.296875 
L 53.609375 8.296875 
L 53.609375 0 
L 7.328125 0 
L 7.328125 8.296875 
Q 12.9375 14.109375 22.625 23.890625 
Q 32.328125 33.6875 34.8125 36.53125 
Q 39.546875 41.84375 41.421875 45.53125 
Q 43.3125 49.21875 43.3125 52.78125 
Q 43.3125 58.59375 39.234375 62.25 
Q 35.15625 65.921875 28.609375 65.921875 
Q 23.96875 65.921875 18.8125 64.3125 
Q 13.671875 62.703125 7.8125 59.421875 
L 7.8125 69.390625 
Q 13.765625 71.78125 18.9375 73 
Q 24.125 74.21875 28.421875 74.21875 
Q 39.75 74.21875 46.484375 68.546875 
Q 53.21875 62.890625 53.21875 53.421875 
Q 53.21875 48.921875 51.53125 44.890625 
Q 49.859375 40.875 45.40625 35.40625 
Q 44.1875 33.984375 37.640625 27.21875 
Q 31.109375 20.453125 19.1875 8.296875 
" id="DejaVuSans-32"/>
      </defs>
      <g transform="translate(898.787613 334.998438)scale(0.1 -0.1)">
       <use xlink:href="#DejaVuSans-32"/>
       <use x="63.623047" xlink:href="#DejaVuSans-30"/>
       <use x="127.246094" xlink:href="#DejaVuSans-30"/>
       <use x="190.869141" xlink:href="#DejaVuSans-30"/>
      </g>
     </g>
    </g>
    <g id="xtick_10">
     <g id="line2d_19">
      <path clip-path="url(#p033343ea76)" d="M 991.152328 320.4 
L 991.152328 43.2 
" style="fill:none;stroke:#b0b0b0;stroke-linecap:square;stroke-width:0.8;"/>
     </g>
     <g id="line2d_20">
      <g>
       <use style="stroke:#000000;stroke-width:0.8;" x="991.152328" xlink:href="#m6340ee40a5" y="320.4"/>
      </g>
     </g>
     <g id="text_10">
      <!-- 2005 -->
      <g transform="translate(978.427328 334.998438)scale(0.1 -0.1)">
       <use xlink:href="#DejaVuSans-32"/>
       <use x="63.623047" xlink:href="#DejaVuSans-30"/>
       <use x="127.246094" xlink:href="#DejaVuSans-30"/>
       <use x="190.869141" xlink:href="#DejaVuSans-35"/>
      </g>
     </g>
    </g>
    <g id="xtick_11">
     <g id="line2d_21">
      <path clip-path="url(#p033343ea76)" d="M 1070.748453 320.4 
L 1070.748453 43.2 
" style="fill:none;stroke:#b0b0b0;stroke-linecap:square;stroke-width:0.8;"/>
     </g>
     <g id="line2d_22">
      <g>
       <use style="stroke:#000000;stroke-width:0.8;" x="1070.748453" xlink:href="#m6340ee40a5" y="320.4"/>
      </g>
     </g>
     <g id="text_11">
      <!-- 2010 -->
      <g transform="translate(1058.023453 334.998438)scale(0.1 -0.1)">
       <use xlink:href="#DejaVuSans-32"/>
       <use x="63.623047" xlink:href="#DejaVuSans-30"/>
       <use x="127.246094" xlink:href="#DejaVuSans-31"/>
       <use x="190.869141" xlink:href="#DejaVuSans-30"/>
      </g>
     </g>
    </g>
    <g id="xtick_12">
     <g id="line2d_23">
      <path clip-path="url(#p033343ea76)" d="M 1150.344577 320.4 
L 1150.344577 43.2 
" style="fill:none;stroke:#b0b0b0;stroke-linecap:square;stroke-width:0.8;"/>
     </g>
     <g id="line2d_24">
      <g>
       <use style="stroke:#000000;stroke-width:0.8;" x="1150.344577" xlink:href="#m6340ee40a5" y="320.4"/>
      </g>
     </g>
     <g id="text_12">
      <!-- 2015 -->
      <g transform="translate(1137.619577 334.998438)scale(0.1 -0.1)">
       <use xlink:href="#DejaVuSans-32"/>
       <use x="63.623047" xlink:href="#DejaVuSans-30"/>
       <use x="127.246094" xlink:href="#DejaVuSans-31"/>
       <use x="190.869141" xlink:href="#DejaVuSans-35"/>
      </g>
     </g>
    </g>
    <g id="xtick_13">
     <g id="line2d_25">
      <path clip-path="url(#p033343ea76)" d="M 1229.940702 320.4 
L 1229.940702 43.2 
" style="fill:none;stroke:#b0b0b0;stroke-linecap:square;stroke-width:0.8;"/>
     </g>
     <g id="line2d_26">
      <g>
       <use style="stroke:#000000;stroke-width:0.8;" x="1229.940702" xlink:href="#m6340ee40a5" y="320.4"/>
      </g>
     </g>
     <g id="text_13">
      <!-- 2020 -->
      <g transform="translate(1217.215702 334.998438)scale(0.1 -0.1)">
       <use xlink:href="#DejaVuSans-32"/>
       <use x="63.623047" xlink:href="#DejaVuSans-30"/>
       <use x="127.246094" xlink:href="#DejaVuSans-32"/>
       <use x="190.869141" xlink:href="#DejaVuSans-30"/>
      </g>
     </g>
    </g>
    <g id="xtick_14">
     <g id="line2d_27">
      <defs>
       <path d="M 0 0 
L 0 2 
" id="m366e913907" style="stroke:#000000;stroke-width:0.6;"/>
      </defs>
      <g>
       <use style="stroke:#000000;stroke-width:0.6;" x="274.656436" xlink:href="#m366e913907" y="320.4"/>
      </g>
     </g>
    </g>
    <g id="xtick_15">
     <g id="line2d_28">
      <g>
       <use style="stroke:#000000;stroke-width:0.6;" x="290.610534" xlink:href="#m366e913907" y="320.4"/>
      </g>
     </g>
    </g>
    <g id="xtick_16">
     <g id="line2d_29">
      <g>
       <use style="stroke:#000000;stroke-width:0.6;" x="306.52104" xlink:href="#m366e913907" y="320.4"/>
      </g>
     </g>
    </g>
    <g id="xtick_17">
     <g id="line2d_30">
      <g>
       <use style="stroke:#000000;stroke-width:0.6;" x="322.431547" xlink:href="#m366e913907" y="320.4"/>
      </g>
     </g>
    </g>
    <g id="xtick_18">
     <g id="line2d_31">
      <g>
       <use style="stroke:#000000;stroke-width:0.6;" x="338.342054" xlink:href="#m366e913907" y="320.4"/>
      </g>
     </g>
    </g>
    <g id="xtick_19">
     <g id="line2d_32">
      <g>
       <use style="stroke:#000000;stroke-width:0.6;" x="354.296151" xlink:href="#m366e913907" y="320.4"/>
      </g>
     </g>
    </g>
    <g id="xtick_20">
     <g id="line2d_33">
      <g>
       <use style="stroke:#000000;stroke-width:0.6;" x="370.206658" xlink:href="#m366e913907" y="320.4"/>
      </g>
     </g>
    </g>
    <g id="xtick_21">
     <g id="line2d_34">
      <g>
       <use style="stroke:#000000;stroke-width:0.6;" x="386.117165" xlink:href="#m366e913907" y="320.4"/>
      </g>
     </g>
    </g>
    <g id="xtick_22">
     <g id="line2d_35">
      <g>
       <use style="stroke:#000000;stroke-width:0.6;" x="402.027672" xlink:href="#m366e913907" y="320.4"/>
      </g>
     </g>
    </g>
    <g id="xtick_23">
     <g id="line2d_36">
      <g>
       <use style="stroke:#000000;stroke-width:0.6;" x="417.981769" xlink:href="#m366e913907" y="320.4"/>
      </g>
     </g>
    </g>
    <g id="xtick_24">
     <g id="line2d_37">
      <g>
       <use style="stroke:#000000;stroke-width:0.6;" x="433.892276" xlink:href="#m366e913907" y="320.4"/>
      </g>
     </g>
    </g>
    <g id="xtick_25">
     <g id="line2d_38">
      <g>
       <use style="stroke:#000000;stroke-width:0.6;" x="449.802783" xlink:href="#m366e913907" y="320.4"/>
      </g>
     </g>
    </g>
    <g id="xtick_26">
     <g id="line2d_39">
      <g>
       <use style="stroke:#000000;stroke-width:0.6;" x="465.713289" xlink:href="#m366e913907" y="320.4"/>
      </g>
     </g>
    </g>
    <g id="xtick_27">
     <g id="line2d_40">
      <g>
       <use style="stroke:#000000;stroke-width:0.6;" x="481.667387" xlink:href="#m366e913907" y="320.4"/>
      </g>
     </g>
    </g>
    <g id="xtick_28">
     <g id="line2d_41">
      <g>
       <use style="stroke:#000000;stroke-width:0.6;" x="497.577893" xlink:href="#m366e913907" y="320.4"/>
      </g>
     </g>
    </g>
    <g id="xtick_29">
     <g id="line2d_42">
      <g>
       <use style="stroke:#000000;stroke-width:0.6;" x="513.4884" xlink:href="#m366e913907" y="320.4"/>
      </g>
     </g>
    </g>
    <g id="xtick_30">
     <g id="line2d_43">
      <g>
       <use style="stroke:#000000;stroke-width:0.6;" x="529.398907" xlink:href="#m366e913907" y="320.4"/>
      </g>
     </g>
    </g>
    <g id="xtick_31">
     <g id="line2d_44">
      <g>
       <use style="stroke:#000000;stroke-width:0.6;" x="545.353004" xlink:href="#m366e913907" y="320.4"/>
      </g>
     </g>
    </g>
    <g id="xtick_32">
     <g id="line2d_45">
      <g>
       <use style="stroke:#000000;stroke-width:0.6;" x="561.263511" xlink:href="#m366e913907" y="320.4"/>
      </g>
     </g>
    </g>
    <g id="xtick_33">
     <g id="line2d_46">
      <g>
       <use style="stroke:#000000;stroke-width:0.6;" x="577.174018" xlink:href="#m366e913907" y="320.4"/>
      </g>
     </g>
    </g>
    <g id="xtick_34">
     <g id="line2d_47">
      <g>
       <use style="stroke:#000000;stroke-width:0.6;" x="593.084525" xlink:href="#m366e913907" y="320.4"/>
      </g>
     </g>
    </g>
    <g id="xtick_35">
     <g id="line2d_48">
      <g>
       <use style="stroke:#000000;stroke-width:0.6;" x="609.038622" xlink:href="#m366e913907" y="320.4"/>
      </g>
     </g>
    </g>
    <g id="xtick_36">
     <g id="line2d_49">
      <g>
       <use style="stroke:#000000;stroke-width:0.6;" x="624.949129" xlink:href="#m366e913907" y="320.4"/>
      </g>
     </g>
    </g>
    <g id="xtick_37">
     <g id="line2d_50">
      <g>
       <use style="stroke:#000000;stroke-width:0.6;" x="640.859636" xlink:href="#m366e913907" y="320.4"/>
      </g>
     </g>
    </g>
    <g id="xtick_38">
     <g id="line2d_51">
      <g>
       <use style="stroke:#000000;stroke-width:0.6;" x="656.770143" xlink:href="#m366e913907" y="320.4"/>
      </g>
     </g>
    </g>
    <g id="xtick_39">
     <g id="line2d_52">
      <g>
       <use style="stroke:#000000;stroke-width:0.6;" x="672.72424" xlink:href="#m366e913907" y="320.4"/>
      </g>
     </g>
    </g>
    <g id="xtick_40">
     <g id="line2d_53">
      <g>
       <use style="stroke:#000000;stroke-width:0.6;" x="688.634747" xlink:href="#m366e913907" y="320.4"/>
      </g>
     </g>
    </g>
    <g id="xtick_41">
     <g id="line2d_54">
      <g>
       <use style="stroke:#000000;stroke-width:0.6;" x="704.545253" xlink:href="#m366e913907" y="320.4"/>
      </g>
     </g>
    </g>
    <g id="xtick_42">
     <g id="line2d_55">
      <g>
       <use style="stroke:#000000;stroke-width:0.6;" x="720.45576" xlink:href="#m366e913907" y="320.4"/>
      </g>
     </g>
    </g>
    <g id="xtick_43">
     <g id="line2d_56">
      <g>
       <use style="stroke:#000000;stroke-width:0.6;" x="736.409857" xlink:href="#m366e913907" y="320.4"/>
      </g>
     </g>
    </g>
    <g id="xtick_44">
     <g id="line2d_57">
      <g>
       <use style="stroke:#000000;stroke-width:0.6;" x="752.320364" xlink:href="#m366e913907" y="320.4"/>
      </g>
     </g>
    </g>
    <g id="xtick_45">
     <g id="line2d_58">
      <g>
       <use style="stroke:#000000;stroke-width:0.6;" x="768.230871" xlink:href="#m366e913907" y="320.4"/>
      </g>
     </g>
    </g>
    <g id="xtick_46">
     <g id="line2d_59">
      <g>
       <use style="stroke:#000000;stroke-width:0.6;" x="784.141378" xlink:href="#m366e913907" y="320.4"/>
      </g>
     </g>
    </g>
    <g id="xtick_47">
     <g id="line2d_60">
      <g>
       <use style="stroke:#000000;stroke-width:0.6;" x="800.095475" xlink:href="#m366e913907" y="320.4"/>
      </g>
     </g>
    </g>
    <g id="xtick_48">
     <g id="line2d_61">
      <g>
       <use style="stroke:#000000;stroke-width:0.6;" x="816.005982" xlink:href="#m366e913907" y="320.4"/>
      </g>
     </g>
    </g>
    <g id="xtick_49">
     <g id="line2d_62">
      <g>
       <use style="stroke:#000000;stroke-width:0.6;" x="831.916489" xlink:href="#m366e913907" y="320.4"/>
      </g>
     </g>
    </g>
    <g id="xtick_50">
     <g id="line2d_63">
      <g>
       <use style="stroke:#000000;stroke-width:0.6;" x="847.826996" xlink:href="#m366e913907" y="320.4"/>
      </g>
     </g>
    </g>
    <g id="xtick_51">
     <g id="line2d_64">
      <g>
       <use style="stroke:#000000;stroke-width:0.6;" x="863.781093" xlink:href="#m366e913907" y="320.4"/>
      </g>
     </g>
    </g>
    <g id="xtick_52">
     <g id="line2d_65">
      <g>
       <use style="stroke:#000000;stroke-width:0.6;" x="879.6916" xlink:href="#m366e913907" y="320.4"/>
      </g>
     </g>
    </g>
    <g id="xtick_53">
     <g id="line2d_66">
      <g>
       <use style="stroke:#000000;stroke-width:0.6;" x="895.602106" xlink:href="#m366e913907" y="320.4"/>
      </g>
     </g>
    </g>
    <g id="xtick_54">
     <g id="line2d_67">
      <g>
       <use style="stroke:#000000;stroke-width:0.6;" x="911.512613" xlink:href="#m366e913907" y="320.4"/>
      </g>
     </g>
    </g>
    <g id="xtick_55">
     <g id="line2d_68">
      <g>
       <use style="stroke:#000000;stroke-width:0.6;" x="927.466711" xlink:href="#m366e913907" y="320.4"/>
      </g>
     </g>
    </g>
    <g id="xtick_56">
     <g id="line2d_69">
      <g>
       <use style="stroke:#000000;stroke-width:0.6;" x="943.377217" xlink:href="#m366e913907" y="320.4"/>
      </g>
     </g>
    </g>
    <g id="xtick_57">
     <g id="line2d_70">
      <g>
       <use style="stroke:#000000;stroke-width:0.6;" x="959.287724" xlink:href="#m366e913907" y="320.4"/>
      </g>
     </g>
    </g>
    <g id="xtick_58">
     <g id="line2d_71">
      <g>
       <use style="stroke:#000000;stroke-width:0.6;" x="975.198231" xlink:href="#m366e913907" y="320.4"/>
      </g>
     </g>
    </g>
    <g id="xtick_59">
     <g id="line2d_72">
      <g>
       <use style="stroke:#000000;stroke-width:0.6;" x="991.152328" xlink:href="#m366e913907" y="320.4"/>
      </g>
     </g>
    </g>
    <g id="xtick_60">
     <g id="line2d_73">
      <g>
       <use style="stroke:#000000;stroke-width:0.6;" x="1007.062835" xlink:href="#m366e913907" y="320.4"/>
      </g>
     </g>
    </g>
    <g id="xtick_61">
     <g id="line2d_74">
      <g>
       <use style="stroke:#000000;stroke-width:0.6;" x="1022.973342" xlink:href="#m366e913907" y="320.4"/>
      </g>
     </g>
    </g>
    <g id="xtick_62">
     <g id="line2d_75">
      <g>
       <use style="stroke:#000000;stroke-width:0.6;" x="1038.883849" xlink:href="#m366e913907" y="320.4"/>
      </g>
     </g>
    </g>
    <g id="xtick_63">
     <g id="line2d_76">
      <g>
       <use style="stroke:#000000;stroke-width:0.6;" x="1054.837946" xlink:href="#m366e913907" y="320.4"/>
      </g>
     </g>
    </g>
    <g id="xtick_64">
     <g id="line2d_77">
      <g>
       <use style="stroke:#000000;stroke-width:0.6;" x="1070.748453" xlink:href="#m366e913907" y="320.4"/>
      </g>
     </g>
    </g>
    <g id="xtick_65">
     <g id="line2d_78">
      <g>
       <use style="stroke:#000000;stroke-width:0.6;" x="1086.65896" xlink:href="#m366e913907" y="320.4"/>
      </g>
     </g>
    </g>
    <g id="xtick_66">
     <g id="line2d_79">
      <g>
       <use style="stroke:#000000;stroke-width:0.6;" x="1102.569466" xlink:href="#m366e913907" y="320.4"/>
      </g>
     </g>
    </g>
    <g id="xtick_67">
     <g id="line2d_80">
      <g>
       <use style="stroke:#000000;stroke-width:0.6;" x="1118.523564" xlink:href="#m366e913907" y="320.4"/>
      </g>
     </g>
    </g>
    <g id="xtick_68">
     <g id="line2d_81">
      <g>
       <use style="stroke:#000000;stroke-width:0.6;" x="1134.43407" xlink:href="#m366e913907" y="320.4"/>
      </g>
     </g>
    </g>
    <g id="xtick_69">
     <g id="line2d_82">
      <g>
       <use style="stroke:#000000;stroke-width:0.6;" x="1150.344577" xlink:href="#m366e913907" y="320.4"/>
      </g>
     </g>
    </g>
    <g id="xtick_70">
     <g id="line2d_83">
      <g>
       <use style="stroke:#000000;stroke-width:0.6;" x="1166.255084" xlink:href="#m366e913907" y="320.4"/>
      </g>
     </g>
    </g>
    <g id="xtick_71">
     <g id="line2d_84">
      <g>
       <use style="stroke:#000000;stroke-width:0.6;" x="1182.209181" xlink:href="#m366e913907" y="320.4"/>
      </g>
     </g>
    </g>
    <g id="xtick_72">
     <g id="line2d_85">
      <g>
       <use style="stroke:#000000;stroke-width:0.6;" x="1198.119688" xlink:href="#m366e913907" y="320.4"/>
      </g>
     </g>
    </g>
    <g id="xtick_73">
     <g id="line2d_86">
      <g>
       <use style="stroke:#000000;stroke-width:0.6;" x="1214.030195" xlink:href="#m366e913907" y="320.4"/>
      </g>
     </g>
    </g>
    <g id="xtick_74">
     <g id="line2d_87">
      <g>
       <use style="stroke:#000000;stroke-width:0.6;" x="1229.940702" xlink:href="#m366e913907" y="320.4"/>
      </g>
     </g>
    </g>
   </g>
   <g id="matplotlib.axis_2">
    <g id="ytick_1">
     <g id="line2d_88">
      <path clip-path="url(#p033343ea76)" d="M 180 306.163743 
L 1296 306.163743 
" style="fill:none;stroke:#b0b0b0;stroke-linecap:square;stroke-width:0.8;"/>
     </g>
     <g id="line2d_89">
      <defs>
       <path d="M 0 0 
L -3.5 0 
" id="m1bce5d99dd" style="stroke:#000000;stroke-width:0.8;"/>
      </defs>
      <g>
       <use style="stroke:#000000;stroke-width:0.8;" x="180" xlink:href="#m1bce5d99dd" y="306.163743"/>
      </g>
     </g>
     <g id="text_14">
      <!-- 108 -->
      <g transform="translate(153.9125 309.962962)scale(0.1 -0.1)">
       <use xlink:href="#DejaVuSans-31"/>
       <use x="63.623047" xlink:href="#DejaVuSans-30"/>
       <use x="127.246094" xlink:href="#DejaVuSans-38"/>
      </g>
     </g>
    </g>
    <g id="ytick_2">
     <g id="line2d_90">
      <path clip-path="url(#p033343ea76)" d="M 180 273.150822 
L 1296 273.150822 
" style="fill:none;stroke:#b0b0b0;stroke-linecap:square;stroke-width:0.8;"/>
     </g>
     <g id="line2d_91">
      <g>
       <use style="stroke:#000000;stroke-width:0.8;" x="180" xlink:href="#m1bce5d99dd" y="273.150822"/>
      </g>
     </g>
     <g id="text_15">
      <!-- 110 -->
      <g transform="translate(153.9125 276.950041)scale(0.1 -0.1)">
       <use xlink:href="#DejaVuSans-31"/>
       <use x="63.623047" xlink:href="#DejaVuSans-31"/>
       <use x="127.246094" xlink:href="#DejaVuSans-30"/>
      </g>
     </g>
    </g>
    <g id="ytick_3">
     <g id="line2d_92">
      <path clip-path="url(#p033343ea76)" d="M 180 240.137901 
L 1296 240.137901 
" style="fill:none;stroke:#b0b0b0;stroke-linecap:square;stroke-width:0.8;"/>
     </g>
     <g id="line2d_93">
      <g>
       <use style="stroke:#000000;stroke-width:0.8;" x="180" xlink:href="#m1bce5d99dd" y="240.137901"/>
      </g>
     </g>
     <g id="text_16">
      <!-- 112 -->
      <g transform="translate(153.9125 243.93712)scale(0.1 -0.1)">
       <use xlink:href="#DejaVuSans-31"/>
       <use x="63.623047" xlink:href="#DejaVuSans-31"/>
       <use x="127.246094" xlink:href="#DejaVuSans-32"/>
      </g>
     </g>
    </g>
    <g id="ytick_4">
     <g id="line2d_94">
      <path clip-path="url(#p033343ea76)" d="M 180 207.12498 
L 1296 207.12498 
" style="fill:none;stroke:#b0b0b0;stroke-linecap:square;stroke-width:0.8;"/>
     </g>
     <g id="line2d_95">
      <g>
       <use style="stroke:#000000;stroke-width:0.8;" x="180" xlink:href="#m1bce5d99dd" y="207.12498"/>
      </g>
     </g>
     <g id="text_17">
      <!-- 114 -->
      <defs>
       <path d="M 37.796875 64.3125 
L 12.890625 25.390625 
L 37.796875 25.390625 
z
M 35.203125 72.90625 
L 47.609375 72.90625 
L 47.609375 25.390625 
L 58.015625 25.390625 
L 58.015625 17.1875 
L 47.609375 17.1875 
L 47.609375 0 
L 37.796875 0 
L 37.796875 17.1875 
L 4.890625 17.1875 
L 4.890625 26.703125 
z
" id="DejaVuSans-34"/>
      </defs>
      <g transform="translate(153.9125 210.924199)scale(0.1 -0.1)">
       <use xlink:href="#DejaVuSans-31"/>
       <use x="63.623047" xlink:href="#DejaVuSans-31"/>
       <use x="127.246094" xlink:href="#DejaVuSans-34"/>
      </g>
     </g>
    </g>
    <g id="ytick_5">
     <g id="line2d_96">
      <path clip-path="url(#p033343ea76)" d="M 180 174.11206 
L 1296 174.11206 
" style="fill:none;stroke:#b0b0b0;stroke-linecap:square;stroke-width:0.8;"/>
     </g>
     <g id="line2d_97">
      <g>
       <use style="stroke:#000000;stroke-width:0.8;" x="180" xlink:href="#m1bce5d99dd" y="174.11206"/>
      </g>
     </g>
     <g id="text_18">
      <!-- 116 -->
      <g transform="translate(153.9125 177.911278)scale(0.1 -0.1)">
       <use xlink:href="#DejaVuSans-31"/>
       <use x="63.623047" xlink:href="#DejaVuSans-31"/>
       <use x="127.246094" xlink:href="#DejaVuSans-36"/>
      </g>
     </g>
    </g>
    <g id="ytick_6">
     <g id="line2d_98">
      <path clip-path="url(#p033343ea76)" d="M 180 141.099139 
L 1296 141.099139 
" style="fill:none;stroke:#b0b0b0;stroke-linecap:square;stroke-width:0.8;"/>
     </g>
     <g id="line2d_99">
      <g>
       <use style="stroke:#000000;stroke-width:0.8;" x="180" xlink:href="#m1bce5d99dd" y="141.099139"/>
      </g>
     </g>
     <g id="text_19">
      <!-- 118 -->
      <g transform="translate(153.9125 144.898357)scale(0.1 -0.1)">
       <use xlink:href="#DejaVuSans-31"/>
       <use x="63.623047" xlink:href="#DejaVuSans-31"/>
       <use x="127.246094" xlink:href="#DejaVuSans-38"/>
      </g>
     </g>
    </g>
    <g id="ytick_7">
     <g id="line2d_100">
      <path clip-path="url(#p033343ea76)" d="M 180 108.086218 
L 1296 108.086218 
" style="fill:none;stroke:#b0b0b0;stroke-linecap:square;stroke-width:0.8;"/>
     </g>
     <g id="line2d_101">
      <g>
       <use style="stroke:#000000;stroke-width:0.8;" x="180" xlink:href="#m1bce5d99dd" y="108.086218"/>
      </g>
     </g>
     <g id="text_20">
      <!-- 120 -->
      <g transform="translate(153.9125 111.885436)scale(0.1 -0.1)">
       <use xlink:href="#DejaVuSans-31"/>
       <use x="63.623047" xlink:href="#DejaVuSans-32"/>
       <use x="127.246094" xlink:href="#DejaVuSans-30"/>
      </g>
     </g>
    </g>
    <g id="ytick_8">
     <g id="line2d_102">
      <path clip-path="url(#p033343ea76)" d="M 180 75.073297 
L 1296 75.073297 
" style="fill:none;stroke:#b0b0b0;stroke-linecap:square;stroke-width:0.8;"/>
     </g>
     <g id="line2d_103">
      <g>
       <use style="stroke:#000000;stroke-width:0.8;" x="180" xlink:href="#m1bce5d99dd" y="75.073297"/>
      </g>
     </g>
     <g id="text_21">
      <!-- 122 -->
      <g transform="translate(153.9125 78.872516)scale(0.1 -0.1)">
       <use xlink:href="#DejaVuSans-31"/>
       <use x="63.623047" xlink:href="#DejaVuSans-32"/>
       <use x="127.246094" xlink:href="#DejaVuSans-32"/>
      </g>
     </g>
    </g>
   </g>
   <g id="LineCollection_1">
    <path clip-path="url(#p033343ea76)" d="M 1202.912819 156.791582 
L 1203 156.701135 
" style="fill:none;stroke:#ff0000;stroke-width:2;"/>
    <path clip-path="url(#p033343ea76)" d="M 1193.410105 154.394753 
L 1202.912819 144.5361 
" style="fill:none;stroke:#ff0000;stroke-width:2;"/>
    <path clip-path="url(#p033343ea76)" d="M 1186.74077 154.666092 
L 1193.410105 147.746946 
" style="fill:none;stroke:#ff0000;stroke-width:2;"/>
    <path clip-path="url(#p033343ea76)" d="M 1172.007205 165.383986 
L 1186.74077 150.098551 
" style="fill:none;stroke:#ff0000;stroke-width:2;"/>
    <path clip-path="url(#p033343ea76)" d="M 1157.622363 173.705051 
L 1172.007205 158.781402 
" style="fill:none;stroke:#ff0000;stroke-width:2;"/>
    <path clip-path="url(#p033343ea76)" d="M 1154.483852 174.9713 
L 1157.622363 171.715231 
" style="fill:none;stroke:#ff0000;stroke-width:2;"/>
    <path clip-path="url(#p033343ea76)" d="M 1154.2659 160.590329 
L 1154.483852 160.364213 
" style="fill:none;stroke:#ff0000;stroke-width:2;"/>
    <path clip-path="url(#p033343ea76)" d="M 1125.583397 184.875176 
L 1154.2659 155.118324 
" style="fill:none;stroke:#ff0000;stroke-width:2;"/>
    <path clip-path="url(#p033343ea76)" d="M 1117.869707 178.408262 
L 1125.583397 170.403759 
" style="fill:none;stroke:#ff0000;stroke-width:2;"/>
    <path clip-path="url(#p033343ea76)" d="M 1117.303032 178.317815 
L 1117.869707 177.729914 
" style="fill:none;stroke:#ff0000;stroke-width:2;"/>
    <path clip-path="url(#p033343ea76)" d="M 1094.111107 192.382224 
L 1117.303032 168.323493 
" style="fill:none;stroke:#ff0000;stroke-width:2;"/>
    <path clip-path="url(#p033343ea76)" d="M 1084.130715 200.567619 
L 1094.111107 190.211511 
" style="fill:none;stroke:#ff0000;stroke-width:2;"/>
    <path clip-path="url(#p033343ea76)" d="M 1076.021078 202.466993 
L 1084.130715 194.055482 
" style="fill:none;stroke:#ff0000;stroke-width:2;"/>
    <path clip-path="url(#p033343ea76)" d="M 1065.864508 200.251057 
L 1076.021078 189.714056 
" style="fill:none;stroke:#ff0000;stroke-width:2;"/>
    <path clip-path="url(#p033343ea76)" d="M 1054.881536 193.60325 
L 1065.864508 182.207009 
" style="fill:none;stroke:#ff0000;stroke-width:2;"/>
    <path clip-path="url(#p033343ea76)" d="M 1053.26869 185.870086 
L 1054.881536 184.196829 
" style="fill:none;stroke:#ff0000;stroke-width:2;"/>
    <path clip-path="url(#p033343ea76)" d="M 1032.735782 200.703289 
L 1053.26869 179.403171 
" style="fill:none;stroke:#ff0000;stroke-width:2;"/>
    <path clip-path="url(#p033343ea76)" d="M 1024.150283 204.818598 
L 1032.735782 195.909632 
" style="fill:none;stroke:#ff0000;stroke-width:2;"/>
    <path clip-path="url(#p033343ea76)" d="M 1023.975922 203.054894 
L 1024.150283 202.874002 
" style="fill:none;stroke:#ff0000;stroke-width:2;"/>
    <path clip-path="url(#p033343ea76)" d="M 1022.057943 184.287275 
L 1023.975922 182.297455 
" style="fill:none;stroke:#ff0000;stroke-width:2;"/>
    <path clip-path="url(#p033343ea76)" d="M 1017.435541 172.303132 
L 1022.057943 167.509475 
" style="fill:none;stroke:#ff0000;stroke-width:2;"/>
    <path clip-path="url(#p033343ea76)" d="M 981.691389 194.236374 
L 1017.435541 157.153367 
" style="fill:none;stroke:#ff0000;stroke-width:2;"/>
    <path clip-path="url(#p033343ea76)" d="M 973.0623 202.557439 
L 981.691389 193.60325 
" style="fill:none;stroke:#ff0000;stroke-width:2;"/>
    <path clip-path="url(#p033343ea76)" d="M 971.055324 199.753602 
L 973.0623 197.673336 
" style="fill:none;stroke:#ff0000;stroke-width:2;"/>
    <path clip-path="url(#p033343ea76)" d="M 959.156953 209.702702 
L 971.055324 197.356774 
" style="fill:none;stroke:#ff0000;stroke-width:2;"/>
    <path clip-path="url(#p033343ea76)" d="M 953.488381 212.777878 
L 959.156953 206.898865 
" style="fill:none;stroke:#ff0000;stroke-width:2;"/>
    <path clip-path="url(#p033343ea76)" d="M 949.783194 201.42686 
L 953.488381 197.58289 
" style="fill:none;stroke:#ff0000;stroke-width:2;"/>
    <path clip-path="url(#p033343ea76)" d="M 946.69009 200.29628 
L 949.783194 197.085435 
" style="fill:none;stroke:#ff0000;stroke-width:2;"/>
    <path clip-path="url(#p033343ea76)" d="M 934.265001 199.708379 
L 946.69009 186.819773 
" style="fill:none;stroke:#ff0000;stroke-width:2;"/>
    <path clip-path="url(#p033343ea76)" d="M 924.851285 197.221104 
L 934.265001 187.452897 
" style="fill:none;stroke:#ff0000;stroke-width:2;"/>
    <path clip-path="url(#p033343ea76)" d="M 911.425432 203.552349 
L 924.851285 189.62361 
" style="fill:none;stroke:#ff0000;stroke-width:2;"/>
    <path clip-path="url(#p033343ea76)" d="M 884.266779 147.113821 
L 911.425432 118.939781 
" style="fill:none;stroke:#ff0000;stroke-width:2;"/>
    <path clip-path="url(#p033343ea76)" d="M 873.151219 157.46993 
L 884.266779 145.938019 
" style="fill:none;stroke:#ff0000;stroke-width:2;"/>
    <path clip-path="url(#p033343ea76)" d="M 720.891665 224.264565 
L 873.151219 66.3 
" style="fill:none;stroke:#ff0000;stroke-width:2;"/>
    <path clip-path="url(#p033343ea76)" d="M 720.237808 202.376547 
L 720.891665 201.698199 
" style="fill:none;stroke:#ff0000;stroke-width:2;"/>
    <path clip-path="url(#p033343ea76)" d="M 705.940147 211.330736 
L 720.237808 196.497533 
" style="fill:none;stroke:#ff0000;stroke-width:2;"/>
    <path clip-path="url(#p033343ea76)" d="M 701.406742 215.898277 
L 705.940147 211.195067 
" style="fill:none;stroke:#ff0000;stroke-width:2;"/>
    <path clip-path="url(#p033343ea76)" d="M 674.7294 213.456226 
L 701.406742 185.77964 
" style="fill:none;stroke:#ff0000;stroke-width:2;"/>
    <path clip-path="url(#p033343ea76)" d="M 653.282908 218.06899 
L 674.7294 195.819186 
" style="fill:none;stroke:#ff0000;stroke-width:2;"/>
    <path clip-path="url(#p033343ea76)" d="M 638.723705 230.550587 
L 653.282908 215.446045 
" style="fill:none;stroke:#ff0000;stroke-width:2;"/>
    <path clip-path="url(#p033343ea76)" d="M 611.91559 246.559593 
L 638.723705 218.747338 
" style="fill:none;stroke:#ff0000;stroke-width:2;"/>
    <path clip-path="url(#p033343ea76)" d="M 609.954021 238.012412 
L 611.91559 235.977369 
" style="fill:none;stroke:#ff0000;stroke-width:2;"/>
    <path clip-path="url(#p033343ea76)" d="M 566.23282 254.925881 
L 609.954021 209.567032 
" style="fill:none;stroke:#ff0000;stroke-width:2;"/>
    <path clip-path="url(#p033343ea76)" d="M 559.955798 249.906108 
L 566.23282 243.39397 
" style="fill:none;stroke:#ff0000;stroke-width:2;"/>
    <path clip-path="url(#p033343ea76)" d="M 543.347845 265.643774 
L 559.955798 248.413743 
" style="fill:none;stroke:#ff0000;stroke-width:2;"/>
    <path clip-path="url(#p033343ea76)" d="M 520.026965 241.901605 
L 543.347845 217.707204 
" style="fill:none;stroke:#ff0000;stroke-width:2;"/>
    <path clip-path="url(#p033343ea76)" d="M 494.875287 262.071143 
L 520.026965 235.977369 
" style="fill:none;stroke:#ff0000;stroke-width:2;"/>
    <path clip-path="url(#p033343ea76)" d="M 491.649595 264.648865 
L 494.875287 261.302349 
" style="fill:none;stroke:#ff0000;stroke-width:2;"/>
    <path clip-path="url(#p033343ea76)" d="M 484.152041 244.931558 
L 491.649595 237.153171 
" style="fill:none;stroke:#ff0000;stroke-width:2;"/>
    <path clip-path="url(#p033343ea76)" d="M 434.32818 280.296085 
L 484.152041 228.605991 
" style="fill:none;stroke:#ff0000;stroke-width:2;"/>
    <path clip-path="url(#p033343ea76)" d="M 423.343392 251.488919 
L 434.32818 240.092678 
" style="fill:none;stroke:#ff0000;stroke-width:2;"/>
    <path clip-path="url(#p033343ea76)" d="M 409.307273 261.211903 
L 423.343392 246.650039 
" style="fill:none;stroke:#ff0000;stroke-width:2;"/>
    <path clip-path="url(#p033343ea76)" d="M 405.514906 252.574276 
L 409.307273 248.639859 
" style="fill:none;stroke:#ff0000;stroke-width:2;"/>
    <path clip-path="url(#p033343ea76)" d="M 370.598972 279.029836 
L 405.514906 242.806069 
" style="fill:none;stroke:#ff0000;stroke-width:2;"/>
    <path clip-path="url(#p033343ea76)" d="M 363.755275 278.894166 
L 370.598972 271.794127 
" style="fill:none;stroke:#ff0000;stroke-width:2;"/>
    <path clip-path="url(#p033343ea76)" d="M 357.085939 277.492247 
L 363.755275 270.573101 
" style="fill:none;stroke:#ff0000;stroke-width:2;"/>
    <path clip-path="url(#p033343ea76)" d="M 354.20897 277.944479 
L 357.085939 274.959749 
" style="fill:none;stroke:#ff0000;stroke-width:2;"/>
    <path clip-path="url(#p033343ea76)" d="M 273 297.3 
L 354.20897 213.049217 
" style="fill:none;stroke:#ff0000;stroke-width:2;"/>
   </g>
   <g id="patch_3">
    <path d="M 180 320.4 
L 180 43.2 
" style="fill:none;stroke:#000000;stroke-linecap:square;stroke-linejoin:miter;stroke-width:0.8;"/>
   </g>
   <g id="patch_4">
    <path d="M 1296 320.4 
L 1296 43.2 
" style="fill:none;stroke:#000000;stroke-linecap:square;stroke-linejoin:miter;stroke-width:0.8;"/>
   </g>
   <g id="patch_5">
    <path d="M 180 320.4 
L 1296 320.4 
" style="fill:none;stroke:#000000;stroke-linecap:square;stroke-linejoin:miter;stroke-width:0.8;"/>
   </g>
   <g id="patch_6">
    <path d="M 180 43.2 
L 1296 43.2 
" style="fill:none;stroke:#000000;stroke-linecap:square;stroke-linejoin:miter;stroke-width:0.8;"/>
   </g>
  </g>
 </g>
 <defs>
  <clipPath id="p033343ea76">
   <rect height="277.2" width="1116" x="180" y="43.2"/>
  </clipPath>
 </defs>
</svg>
